{
  "asset": {
    "version": "2.0",
    "generator": "v3d.GLTFExporter"
  },
  "scenes": [
    {
      "name": "AuxScene",
      "nodes": [
        0
      ]
    }
  ],
  "scene": 0,
  "nodes": [
    {
      "matrix": [
        0.1,
        0,
        0,
        0,
        0,
        -0.1,
        5.665538897647979e-17,
        0,
        0,
        -5.665538897647979e-17,
        -0.1,
        0,
        0,
        0,
        0,
        1
      ],
      "name": "Merged Mesh",
      "mesh": 0
    }
  ],
  "bufferViews": [
    {
      "buffer": 0,
      "byteOffset": 0,
      "byteLength": 332832,
      "target": 34962,
      "byteStride": 12
    },
    {
      "buffer": 0,
      "byteOffset": 332832,
      "byteLength": 221888,
      "target": 34962,
      "byteStride": 8
    },
    {
      "buffer": 0,
      "byteOffset": 554720,
      "byteLength": 332832,
      "target": 34962,
      "byteStride": 12
    },
    {
      "buffer": 0,
      "byteOffset": 887552,
      "byteLength": 443776,
      "target": 34962,
      "byteStride": 16
    },
    {
      "buffer": 0,
      "byteOffset": 1331328,
      "byteLength": 258000,
      "target": 34963
    }
  ],
  "buffers": [
    {
      "byteLength": 1589328,
      "uri": "data:application/octet-stream;base64,"
    }
  ],
  "accessors": [
    {
      "bufferView": 0,
      "componentType": 5126,
      "count": 27736,
      "max": [
        101.13424682617188,
        80.2051010131836,
        4
      ],
      "min": [
        -101.13424682617188,
        -80.2051010131836,
        -4
      ],
      "type": "VEC3"
    },
    {
      "bufferView": 1,
      "componentType": 5126,
      "count": 27736,
      "max": [
        2.0199999809265137,
        1.5840766429901123
      ],
      "min": [
        -2.025369644165039,
        -1.5840766429901123
      ],
      "type": "VEC2"
    },
    {
      "bufferView": 2,
      "componentType": 5126,
      "count": 27736,
      "max": [
        1,
        1,
        1
      ],
      "min": [
        -1,
        -1,
        -1
      ],
      "type": "VEC3"
    },
    {
      "bufferView": 3,
      "componentType": 5126,
      "count": 27736,
      "max": [
        1,
        1,
        0.769753634929657,
        1
      ],
      "min": [
        -0.9358458518981934,
        -0.9868074655532837,
        -0.6237586140632629,
        -1
      ],
      "type": "VEC4"
    },
    {
      "bufferView": 4,
      "componentType": 5123,
      "count": 129000,
      "max": [
        27735
      ],
      "min": [
        0
      ],
      "type": "SCALAR"
    }
  ],
  "materials": [
    {
      "pbrMetallicRoughness": {
        "baseColorFactor": [
          0.800000011920929,
          0.800000011920929,
          0.800000011920929,
          1
        ],
        "metallicFactor": 1,
        "roughnessFactor": 0.15000000596046448
      },
      "name": "Chrome_Clean_Optimised"
    }
  ],
  "meshes": [
    {
      "primitives": [
        {
          "mode": 4,
          "attributes": {
            "POSITION": 0,
            "TEXCOORD_0": 1,
            "NORMAL": 2,
            "TANGENT": 3
          },
          "indices": 4,
          "material": 0
        }
      ]
    }
  ]
}